<mxfile host="app.diagrams.net" modified="2022-03-26T11:57:04.771Z" agent="5.0 (Windows NT 10.0; Win64; x64) AppleWebKit/537.36 (KHTML, like Gecko) Chrome/99.0.4844.82 Safari/537.36" etag="-mapsRFgU-SApgPofav0" version="17.2.4" type="github">
  <diagram id="esckiD2Pb9o37lxcrIRR" name="Page-1">
    <mxGraphModel dx="1422" dy="754" grid="1" gridSize="10" guides="1" tooltips="1" connect="1" arrows="1" fold="1" page="1" pageScale="1" pageWidth="827" pageHeight="1169" math="0" shadow="0">
      <root>
        <mxCell id="0" />
        <mxCell id="1" parent="0" />
        <mxCell id="rKFRgSVeabLJ9gz8k0LT-21" style="edgeStyle=elbowEdgeStyle;rounded=0;orthogonalLoop=1;jettySize=auto;html=1;exitX=1;exitY=0.25;exitDx=0;exitDy=0;fontSize=14;endArrow=block;endFill=1;" edge="1" parent="1" source="rKFRgSVeabLJ9gz8k0LT-1" target="rKFRgSVeabLJ9gz8k0LT-2">
          <mxGeometry relative="1" as="geometry" />
        </mxCell>
        <mxCell id="rKFRgSVeabLJ9gz8k0LT-22" style="edgeStyle=elbowEdgeStyle;rounded=0;orthogonalLoop=1;jettySize=auto;html=1;entryX=0;entryY=0.5;entryDx=0;entryDy=0;fontSize=14;endArrow=block;endFill=1;" edge="1" parent="1" source="rKFRgSVeabLJ9gz8k0LT-1" target="rKFRgSVeabLJ9gz8k0LT-3">
          <mxGeometry relative="1" as="geometry">
            <Array as="points">
              <mxPoint x="410" y="330" />
            </Array>
          </mxGeometry>
        </mxCell>
        <mxCell id="rKFRgSVeabLJ9gz8k0LT-23" style="edgeStyle=elbowEdgeStyle;rounded=0;orthogonalLoop=1;jettySize=auto;html=1;exitX=0.997;exitY=0.622;exitDx=0;exitDy=0;entryX=0.002;entryY=0.547;entryDx=0;entryDy=0;entryPerimeter=0;fontSize=14;endArrow=block;endFill=1;exitPerimeter=0;" edge="1" parent="1" source="rKFRgSVeabLJ9gz8k0LT-1" target="rKFRgSVeabLJ9gz8k0LT-4">
          <mxGeometry relative="1" as="geometry" />
        </mxCell>
        <mxCell id="rKFRgSVeabLJ9gz8k0LT-1" value="" style="rounded=0;whiteSpace=wrap;html=1;strokeWidth=2;fillColor=#f5f5f5;strokeColor=#666666;fontColor=#333333;" vertex="1" parent="1">
          <mxGeometry x="160" y="190" width="210" height="300" as="geometry" />
        </mxCell>
        <mxCell id="rKFRgSVeabLJ9gz8k0LT-2" value="" style="rounded=0;whiteSpace=wrap;html=1;strokeWidth=2;fillColor=#dae8fc;strokeColor=#6c8ebf;" vertex="1" parent="1">
          <mxGeometry x="489" y="200" width="170" height="60" as="geometry" />
        </mxCell>
        <mxCell id="rKFRgSVeabLJ9gz8k0LT-3" value="" style="rounded=0;whiteSpace=wrap;html=1;strokeWidth=2;fillColor=#fff2cc;strokeColor=#d6b656;" vertex="1" parent="1">
          <mxGeometry x="489" y="300" width="170" height="60" as="geometry" />
        </mxCell>
        <mxCell id="rKFRgSVeabLJ9gz8k0LT-4" value="" style="rounded=0;whiteSpace=wrap;html=1;strokeWidth=2;fillColor=#f8cecc;strokeColor=#b85450;" vertex="1" parent="1">
          <mxGeometry x="489" y="400" width="170" height="60" as="geometry" />
        </mxCell>
        <mxCell id="rKFRgSVeabLJ9gz8k0LT-5" value="&lt;span style=&quot;font-size: 24px&quot;&gt;Server&lt;/span&gt;" style="text;html=1;resizable=0;autosize=1;align=center;verticalAlign=middle;points=[];fillColor=none;strokeColor=none;rounded=0;" vertex="1" parent="1">
          <mxGeometry x="147" y="150" width="90" height="20" as="geometry" />
        </mxCell>
        <mxCell id="rKFRgSVeabLJ9gz8k0LT-6" value="&lt;font style=&quot;font-size: 24px&quot;&gt;Local&lt;/font&gt;" style="text;html=1;resizable=0;autosize=1;align=center;verticalAlign=middle;points=[];fillColor=none;strokeColor=none;rounded=0;" vertex="1" parent="1">
          <mxGeometry x="469" y="150" width="70" height="20" as="geometry" />
        </mxCell>
        <mxCell id="rKFRgSVeabLJ9gz8k0LT-11" value="&lt;font style=&quot;font-size: 14px&quot;&gt;Deport 1&lt;/font&gt;" style="text;html=1;resizable=0;autosize=1;align=center;verticalAlign=middle;points=[];fillColor=none;strokeColor=none;rounded=0;fontStyle=1" vertex="1" parent="1">
          <mxGeometry x="189" y="230" width="70" height="20" as="geometry" />
        </mxCell>
        <mxCell id="rKFRgSVeabLJ9gz8k0LT-12" value="&lt;font style=&quot;font-size: 14px&quot;&gt;Deport 2&lt;/font&gt;" style="text;html=1;resizable=0;autosize=1;align=center;verticalAlign=middle;points=[];fillColor=none;strokeColor=none;rounded=0;fontStyle=1" vertex="1" parent="1">
          <mxGeometry x="189" y="270" width="70" height="20" as="geometry" />
        </mxCell>
        <mxCell id="rKFRgSVeabLJ9gz8k0LT-13" value="&lt;font style=&quot;font-size: 14px&quot;&gt;Deport 3&lt;/font&gt;" style="text;html=1;resizable=0;autosize=1;align=center;verticalAlign=middle;points=[];fillColor=none;strokeColor=none;rounded=0;fontStyle=1" vertex="1" parent="1">
          <mxGeometry x="189" y="310" width="70" height="20" as="geometry" />
        </mxCell>
        <mxCell id="rKFRgSVeabLJ9gz8k0LT-15" value="&lt;font style=&quot;font-size: 14px&quot;&gt;Deport 4&lt;/font&gt;" style="text;html=1;resizable=0;autosize=1;align=center;verticalAlign=middle;points=[];fillColor=none;strokeColor=none;rounded=0;fontStyle=1" vertex="1" parent="1">
          <mxGeometry x="189" y="350" width="70" height="20" as="geometry" />
        </mxCell>
        <mxCell id="rKFRgSVeabLJ9gz8k0LT-16" value="&lt;font style=&quot;font-size: 14px&quot;&gt;Deport n&lt;/font&gt;" style="text;html=1;resizable=0;autosize=1;align=center;verticalAlign=middle;points=[];fillColor=none;strokeColor=none;rounded=0;fontStyle=1" vertex="1" parent="1">
          <mxGeometry x="189" y="420" width="70" height="20" as="geometry" />
        </mxCell>
        <mxCell id="rKFRgSVeabLJ9gz8k0LT-17" value="&lt;font style=&quot;font-size: 14px&quot;&gt;&lt;b&gt;……&lt;/b&gt;&lt;br&gt;&lt;/font&gt;" style="text;html=1;resizable=0;autosize=1;align=center;verticalAlign=middle;points=[];fillColor=none;strokeColor=none;rounded=0;rotation=90;" vertex="1" parent="1">
          <mxGeometry x="197" y="381" width="40" height="20" as="geometry" />
        </mxCell>
        <mxCell id="rKFRgSVeabLJ9gz8k0LT-18" value="&lt;font style=&quot;font-size: 14px&quot;&gt;workspace 1&lt;/font&gt;" style="text;html=1;resizable=0;autosize=1;align=center;verticalAlign=middle;points=[];fillColor=none;strokeColor=none;rounded=0;fontColor=#007FFF;fontStyle=1" vertex="1" parent="1">
          <mxGeometry x="514" y="270" width="100" height="20" as="geometry" />
        </mxCell>
        <mxCell id="rKFRgSVeabLJ9gz8k0LT-19" value="&lt;font style=&quot;font-size: 14px&quot; color=&quot;#007fff&quot;&gt;workspace 2&lt;/font&gt;" style="text;html=1;resizable=0;autosize=1;align=center;verticalAlign=middle;points=[];fillColor=none;strokeColor=none;rounded=0;fontStyle=1" vertex="1" parent="1">
          <mxGeometry x="514" y="370" width="100" height="20" as="geometry" />
        </mxCell>
        <mxCell id="rKFRgSVeabLJ9gz8k0LT-20" value="&lt;font style=&quot;font-size: 14px&quot; color=&quot;#007fff&quot;&gt;&lt;b&gt;workspace 3&lt;/b&gt;&lt;/font&gt;" style="text;html=1;resizable=0;autosize=1;align=center;verticalAlign=middle;points=[];fillColor=none;strokeColor=none;rounded=0;" vertex="1" parent="1">
          <mxGeometry x="514" y="460" width="100" height="20" as="geometry" />
        </mxCell>
        <mxCell id="rKFRgSVeabLJ9gz8k0LT-24" value="&lt;font style=&quot;font-size: 14px&quot;&gt;Deport 1&lt;/font&gt;" style="text;html=1;resizable=0;autosize=1;align=center;verticalAlign=middle;points=[];fillColor=none;strokeColor=none;rounded=0;fontStyle=1" vertex="1" parent="1">
          <mxGeometry x="489" y="210" width="70" height="20" as="geometry" />
        </mxCell>
        <mxCell id="rKFRgSVeabLJ9gz8k0LT-25" value="&lt;font style=&quot;font-size: 14px&quot;&gt;Deport 3&lt;/font&gt;" style="text;html=1;resizable=0;autosize=1;align=center;verticalAlign=middle;points=[];fillColor=none;strokeColor=none;rounded=0;fontStyle=1" vertex="1" parent="1">
          <mxGeometry x="489" y="230" width="70" height="20" as="geometry" />
        </mxCell>
        <mxCell id="rKFRgSVeabLJ9gz8k0LT-26" value="&lt;font style=&quot;font-size: 14px&quot;&gt;Deport 2&lt;/font&gt;" style="text;html=1;resizable=0;autosize=1;align=center;verticalAlign=middle;points=[];fillColor=none;strokeColor=none;rounded=0;fontStyle=1" vertex="1" parent="1">
          <mxGeometry x="559" y="210" width="70" height="20" as="geometry" />
        </mxCell>
        <mxCell id="rKFRgSVeabLJ9gz8k0LT-27" value="&lt;font style=&quot;font-size: 14px&quot;&gt;Deport 2&lt;/font&gt;" style="text;html=1;resizable=0;autosize=1;align=center;verticalAlign=middle;points=[];fillColor=none;strokeColor=none;rounded=0;fontStyle=1" vertex="1" parent="1">
          <mxGeometry x="494" y="310" width="70" height="20" as="geometry" />
        </mxCell>
        <mxCell id="rKFRgSVeabLJ9gz8k0LT-28" value="&lt;font style=&quot;font-size: 14px&quot;&gt;Deport 4&lt;/font&gt;" style="text;html=1;resizable=0;autosize=1;align=center;verticalAlign=middle;points=[];fillColor=none;strokeColor=none;rounded=0;fontStyle=1" vertex="1" parent="1">
          <mxGeometry x="494" y="330" width="70" height="20" as="geometry" />
        </mxCell>
        <mxCell id="rKFRgSVeabLJ9gz8k0LT-29" value="&lt;font style=&quot;font-size: 14px&quot;&gt;Deport 3&lt;/font&gt;" style="text;html=1;resizable=0;autosize=1;align=center;verticalAlign=middle;points=[];fillColor=none;strokeColor=none;rounded=0;fontStyle=1" vertex="1" parent="1">
          <mxGeometry x="564" y="310" width="70" height="20" as="geometry" />
        </mxCell>
        <mxCell id="rKFRgSVeabLJ9gz8k0LT-30" value="&lt;font style=&quot;font-size: 14px&quot;&gt;Deport 5&lt;/font&gt;" style="text;html=1;resizable=0;autosize=1;align=center;verticalAlign=middle;points=[];fillColor=none;strokeColor=none;rounded=0;fontStyle=1" vertex="1" parent="1">
          <mxGeometry x="564" y="330" width="70" height="20" as="geometry" />
        </mxCell>
        <mxCell id="rKFRgSVeabLJ9gz8k0LT-31" value="&lt;font style=&quot;font-size: 14px&quot;&gt;Deport 3&lt;/font&gt;" style="text;html=1;resizable=0;autosize=1;align=center;verticalAlign=middle;points=[];fillColor=none;strokeColor=none;rounded=0;fontStyle=1" vertex="1" parent="1">
          <mxGeometry x="500" y="410" width="70" height="20" as="geometry" />
        </mxCell>
        <mxCell id="rKFRgSVeabLJ9gz8k0LT-32" value="&lt;font style=&quot;font-size: 14px&quot;&gt;Deport 5&lt;/font&gt;" style="text;html=1;resizable=0;autosize=1;align=center;verticalAlign=middle;points=[];fillColor=none;strokeColor=none;rounded=0;fontStyle=1" vertex="1" parent="1">
          <mxGeometry x="500" y="430" width="70" height="20" as="geometry" />
        </mxCell>
        <mxCell id="rKFRgSVeabLJ9gz8k0LT-33" value="" style="shape=image;verticalLabelPosition=bottom;labelBackgroundColor=default;verticalAlign=top;aspect=fixed;imageAspect=0;image=https://www.perforce.com/manuals/p4v/Content/Resources/Images/p4v-classic-depot.png;" vertex="1" parent="1">
          <mxGeometry x="176" y="231" width="18" height="19" as="geometry" />
        </mxCell>
        <mxCell id="rKFRgSVeabLJ9gz8k0LT-34" value="" style="shape=image;verticalLabelPosition=bottom;labelBackgroundColor=default;verticalAlign=top;aspect=fixed;imageAspect=0;image=https://www.perforce.com/manuals/p4v/Content/Resources/Images/p4v-classic-depot.png;" vertex="1" parent="1">
          <mxGeometry x="176" y="271" width="18" height="19" as="geometry" />
        </mxCell>
        <mxCell id="rKFRgSVeabLJ9gz8k0LT-35" value="" style="shape=image;verticalLabelPosition=bottom;labelBackgroundColor=default;verticalAlign=top;aspect=fixed;imageAspect=0;image=https://www.perforce.com/manuals/p4v/Content/Resources/Images/p4v-classic-depot.png;" vertex="1" parent="1">
          <mxGeometry x="176" y="310.5" width="18" height="19" as="geometry" />
        </mxCell>
        <mxCell id="rKFRgSVeabLJ9gz8k0LT-36" value="" style="shape=image;verticalLabelPosition=bottom;labelBackgroundColor=default;verticalAlign=top;aspect=fixed;imageAspect=0;image=https://www.perforce.com/manuals/p4v/Content/Resources/Images/p4v-classic-depot.png;" vertex="1" parent="1">
          <mxGeometry x="176" y="350" width="18" height="19" as="geometry" />
        </mxCell>
        <mxCell id="rKFRgSVeabLJ9gz8k0LT-37" value="" style="shape=image;verticalLabelPosition=bottom;labelBackgroundColor=default;verticalAlign=top;aspect=fixed;imageAspect=0;image=https://www.perforce.com/manuals/p4v/Content/Resources/Images/p4v-classic-depot.png;" vertex="1" parent="1">
          <mxGeometry x="176" y="420.5" width="18" height="19" as="geometry" />
        </mxCell>
        <mxCell id="rKFRgSVeabLJ9gz8k0LT-38" value="" style="shape=curlyBracket;whiteSpace=wrap;html=1;rounded=1;flipH=1;fontSize=14;fontColor=#007FFF;strokeWidth=1;fillColor=#007FFF;" vertex="1" parent="1">
          <mxGeometry x="270" y="231" width="20" height="199" as="geometry" />
        </mxCell>
        <mxCell id="rKFRgSVeabLJ9gz8k0LT-39" value="&lt;font style=&quot;font-size: 14px&quot;&gt;Tree&lt;/font&gt;" style="text;html=1;resizable=0;autosize=1;align=center;verticalAlign=middle;points=[];fillColor=none;strokeColor=none;rounded=0;fontStyle=1" vertex="1" parent="1">
          <mxGeometry x="305" y="320.5" width="40" height="20" as="geometry" />
        </mxCell>
      </root>
    </mxGraphModel>
  </diagram>
</mxfile>
